# xmcd
# 
# Track frame offsets:
#     150
#     17783
#     34307
#     50741
#     70556
#     87288
#     104081
#     115669
#     131681
#     151596
#     168428
#     185993
# 
# Disc length: 2766
# 
# Revision: 4
# Processed by: cddbd v1.5.2PL0 Copyright (c) Steve Scherf et al.
# Submitted via: fre:ac v1.0.27
# 
DISCID=a20acc0c
DTITLE=Tift Merritt - Tambourine
DYEAR=2004
DGENRE=Country-influenced Rock
TTITLE0=Stray Paper
TTITLE1=Wait It Out
TTITLE2=Good Hearted Man
TTITLE3=Ain't Looking Closely
TTITLE4=Still Pretending
TTITLE5=Write My Ticket
TTITLE6=Your Love Made A U-Turn
TTITLE7=Plainest Thing
TTITLE8=Late Night Pilgrim
TTITLE9=I Am Your Tambourine
TTITLE10=Laid A Highway
TTITLE11=Shadow In The Way
EXTD=
EXTT0=
EXTT1=
EXTT2=
EXTT3=
EXTT4=
EXTT5=
EXTT6=
EXTT7=
EXTT8=
EXTT9=
EXTT10=
EXTT11=
PLAYORDER=
